<svg width="13" height="18" viewBox="0 0 13 18" fill="none" xmlns="http://www.w3.org/2000/svg">
<path d="M8.931 5.39732C8.931 5.35517 8.91992 5.31302 8.91105 5.27087C8.90218 5.22873 8.89553 5.20876 8.88666 5.1777L8.86005 5.07566L8.84009 4.99358C8.82678 4.95143 8.81125 4.91371 8.79573 4.87378L8.76247 4.78061L8.74251 4.72737C8.71811 4.67191 8.6915 4.61867 8.66489 4.56543L8.63606 4.50553C8.63182 4.49403 8.62662 4.4829 8.62054 4.47226C8.58505 4.40792 8.54735 4.34581 8.50743 4.28369C8.49905 4.27251 8.49164 4.26063 8.48526 4.2482C8.43204 4.16612 8.38103 4.10179 8.33224 4.03967L8.31227 4.01305C8.2568 3.94403 8.19757 3.87812 8.13486 3.81561L8.11712 3.79565C7.57815 3.25577 6.84844 2.94976 6.08572 2.94379H6.05245C5.28019 2.94379 4.53955 3.25066 3.99348 3.79691C3.44741 4.34315 3.14063 5.08402 3.14062 5.85653C3.14063 6.62904 3.44741 7.36991 3.99348 7.91615C4.53955 8.4624 5.28019 8.76927 6.05245 8.76927H6.08794C6.46888 8.76655 6.84553 8.68873 7.19638 8.54028C7.54723 8.39182 7.86538 8.17564 8.13264 7.9041C8.19787 7.83966 8.25933 7.77152 8.31671 7.70001L8.33889 7.66895C8.39045 7.60732 8.43858 7.54289 8.48304 7.47595L8.51408 7.42715C8.554 7.36503 8.5917 7.30292 8.62718 7.23637C8.63365 7.22751 8.63888 7.21781 8.64271 7.20753C8.64919 7.19158 8.6566 7.17603 8.66489 7.16094V7.13654C8.6915 7.08552 8.71589 7.03671 8.73807 6.98569C8.74497 6.96829 8.7509 6.95051 8.75581 6.93245L8.79129 6.83706C8.80681 6.79713 8.82234 6.75941 8.83565 6.71948L8.85561 6.63518L8.88222 6.53092C8.88222 6.50208 8.89996 6.47102 8.90661 6.44219C8.91327 6.41335 8.91993 6.35567 8.92658 6.31352L8.93988 6.21147C8.93988 6.19151 8.93988 6.17154 8.95097 6.15379C8.95984 6.05471 8.96428 5.95488 8.96428 5.85431C8.96428 5.7567 8.96428 5.65688 8.95097 5.55927C8.95097 5.5393 8.95097 5.51934 8.95097 5.49937L8.931 5.39732Z" fill="white"/>
<path d="M11.1439 9.67883C11.1728 9.63224 11.2038 9.58122 11.246 9.51688C11.2524 9.50963 11.2576 9.50139 11.2615 9.49248C11.3391 9.34829 11.4588 9.13532 11.4633 9.12645C11.9392 8.19946 12.1849 7.17146 12.1796 6.12941C12.1796 6.01627 12.1796 5.90757 12.1796 5.79665C12.1796 5.74784 12.1796 5.70126 12.1796 5.65245V5.55928C12.1796 5.52822 12.1796 5.49717 12.1796 5.47054L12.1663 5.35297V5.26867L12.153 5.14666C12.153 5.1156 12.153 5.08455 12.1375 5.05349L12.1264 4.97141C12.1264 4.92482 12.1109 4.88045 12.1042 4.83609C12.0975 4.79172 12.0887 4.76288 12.082 4.72739L12.0621 4.62978C12.0621 4.5965 12.0488 4.56101 12.0421 4.52995C12.0354 4.49889 12.0177 4.43456 12.0066 4.38575L11.9844 4.30589C11.9844 4.28149 11.9844 4.25709 11.9645 4.23047C11.9445 4.20385 11.9356 4.12842 11.9201 4.0774L11.9002 4.01306C11.9002 3.98866 11.8846 3.96204 11.878 3.93986C11.8713 3.91767 11.8425 3.84003 11.8225 3.79123L11.8004 3.72467L11.776 3.65812C11.7538 3.60266 11.7316 3.5472 11.7072 3.49396L11.6806 3.43406L11.6607 3.38304C11.6274 3.30984 11.5941 3.23885 11.5586 3.1612L11.5342 3.11018C11.4965 3.03919 11.4589 2.97042 11.4123 2.88834L11.3945 2.85507C11.3524 2.78186 11.308 2.71087 11.257 2.63323L11.2437 2.61104C11.1972 2.54005 11.1484 2.46907 11.0951 2.3892L11.0818 2.36924C11.0286 2.29603 10.9732 2.22504 10.9199 2.1474L10.9066 2.12965C10.8468 2.05645 10.7869 1.98546 10.7204 1.90781C10.6538 1.83017 10.5917 1.76806 10.5252 1.7015C9.41635 0.59231 7.88613 0 6.10976 0C2.51265 0 0 2.51122 0 6.10944C0.000570465 7.221 0.283688 8.31417 0.822757 9.28617L0.913691 9.45477C0.916881 9.46099 0.920588 9.46692 0.924776 9.47252L1.0778 9.70988L1.12215 9.77422L5.02974 16.3429L5.93677 17.8669C5.96084 17.9073 5.99492 17.9407 6.03572 17.9641C6.07651 17.9874 6.12265 17.9998 6.16964 18C6.21489 17.9975 6.25881 17.9838 6.2975 17.9602C6.33619 17.9366 6.36845 17.9038 6.39141 17.8647L7.27849 16.3429L11.0885 9.78309C11.0863 9.76091 11.1151 9.71654 11.1439 9.67883ZM9.49397 6.21814C9.49397 6.25142 9.49396 6.28248 9.47844 6.31353L9.46735 6.39561C9.46735 6.45107 9.45183 6.50653 9.44074 6.55977C9.42965 6.61302 9.42078 6.64407 9.40969 6.68622L9.38751 6.77274C9.38751 6.81267 9.36756 6.8526 9.35647 6.89031C9.34538 6.92803 9.32099 6.99236 9.30103 7.04116L9.2722 7.12324C9.2722 7.14987 9.25223 7.1787 9.24115 7.20532C9.21453 7.26966 9.18348 7.32955 9.15465 7.38945L9.12804 7.44491L9.09699 7.50703C9.05485 7.58245 9.00828 7.65788 8.96171 7.72886L8.92624 7.78876C8.87301 7.86641 8.81535 7.94405 8.75547 8.0106L8.73108 8.04387C8.66676 8.12152 8.5958 8.20138 8.50931 8.27903C8.19086 8.60349 7.81135 8.8617 7.39266 9.03874C6.97397 9.21579 6.52439 9.30817 6.06984 9.31057H6.03435C5.13343 9.28774 4.27708 8.91369 3.64795 8.26822C3.01882 7.62274 2.66671 6.75693 2.66671 5.85544C2.66671 4.95394 3.01882 4.08813 3.64795 3.44265C4.27708 2.79718 5.13343 2.42313 6.03435 2.4003H6.06984C6.52018 2.40348 6.96547 2.49545 7.38025 2.67093C7.79503 2.84641 8.17116 3.10196 8.48712 3.42297L8.50265 3.4385C8.57429 3.50902 8.6424 3.58305 8.70669 3.66034L8.72886 3.6914C8.79095 3.76904 8.85083 3.84668 8.90405 3.92655L8.93066 3.97091C8.98832 4.05743 9.03268 4.13286 9.07482 4.20828L9.10587 4.27261L9.11917 4.29924C9.15909 4.3791 9.19014 4.44343 9.21897 4.52108C9.22932 4.5477 9.2404 4.57653 9.25223 4.60759L9.27884 4.68524C9.2988 4.73404 9.31876 4.78506 9.33428 4.83609C9.34981 4.88711 9.35646 4.91373 9.36534 4.95366L9.38751 5.04018C9.38751 5.08233 9.40969 5.12448 9.41856 5.16663C9.42743 5.20878 9.4363 5.27533 9.44517 5.33079L9.45625 5.41287C9.45625 5.44392 9.45626 5.47498 9.47178 5.50826C9.48287 5.62361 9.48731 5.74341 9.48731 5.85876C9.48731 5.97412 9.50505 6.09169 9.49397 6.20705V6.21814Z" fill="white"/>
</svg>
