<svg width="12" height="18" viewBox="0 0 12 18" fill="none" xmlns="http://www.w3.org/2000/svg">
<path d="M10.0775 0H1.17253C1.0182 -1.02911e-06 0.865392 0.032425 0.722864 0.0954192C0.580336 0.158413 0.450893 0.250736 0.34196 0.367093C0.233027 0.483449 0.146747 0.62155 0.0880664 0.773475C0.0293863 0.9254 -0.000538946 1.08816 7.34667e-06 1.25242V16.7542C7.10479e-06 16.918 0.0303504 17.0802 0.0893006 17.2315C0.148251 17.3827 0.234651 17.5202 0.343557 17.6359C0.452463 17.7516 0.581737 17.8433 0.723982 17.9058C0.866227 17.9683 1.01865 18.0003 1.17253 18H10.0775C10.2313 18.0003 10.3838 17.9683 10.526 17.9058C10.6683 17.8433 10.7975 17.7516 10.9064 17.6359C11.0153 17.5202 11.1017 17.3827 11.1607 17.2315C11.2196 17.0802 11.25 16.918 11.25 16.7542V1.25242C11.2505 1.08816 11.2206 0.9254 11.1619 0.773475C11.1033 0.62155 11.017 0.483449 10.908 0.367093C10.7991 0.250736 10.6697 0.158413 10.5271 0.0954192C10.3846 0.032425 10.2318 -1.02911e-06 10.0775 0ZM5.61566 0.419684C5.64809 0.419684 5.67978 0.429917 5.70675 0.449091C5.73371 0.468265 5.75472 0.495519 5.76713 0.527405C5.77954 0.559291 5.78278 0.594376 5.77646 0.628225C5.77013 0.662075 5.75452 0.693168 5.73159 0.717573C5.70866 0.741977 5.67945 0.758597 5.64765 0.76533C5.61584 0.772063 5.58288 0.768607 5.55292 0.755399C5.52296 0.742192 5.49736 0.719826 5.47935 0.69113C5.46133 0.662433 5.45172 0.628695 5.45172 0.594182C5.45172 0.547902 5.46899 0.503518 5.49973 0.470793C5.53048 0.438068 5.57218 0.419684 5.61566 0.419684ZM4.99308 1.12431H6.23824C6.28172 1.12431 6.32342 1.14269 6.35417 1.17542C6.38491 1.20814 6.40218 1.25253 6.40218 1.29881C6.40218 1.34509 6.38491 1.38947 6.35417 1.4222C6.32342 1.45492 6.28172 1.47331 6.23824 1.47331H5.01176C4.96828 1.47331 4.92658 1.45492 4.89583 1.4222C4.86509 1.38947 4.84782 1.34509 4.84782 1.29881C4.84782 1.25253 4.86509 1.20814 4.89583 1.17542C4.92658 1.14269 4.96828 1.12431 5.01176 1.12431H4.99308ZM4.44314 1.16407C4.46818 1.16407 4.49265 1.17197 4.51347 1.18678C4.53429 1.20158 4.55051 1.22263 4.56009 1.24725C4.56968 1.27187 4.57218 1.29896 4.5673 1.3251C4.56241 1.35123 4.55036 1.37524 4.53265 1.39408C4.51495 1.41293 4.49239 1.42576 4.46784 1.43096C4.44328 1.43616 4.41783 1.43349 4.39469 1.42329C4.37156 1.41309 4.35179 1.39582 4.33788 1.37367C4.32397 1.35151 4.31655 1.32546 4.31655 1.29881C4.31635 1.27931 4.32013 1.26 4.32762 1.2422C4.33512 1.22441 4.34615 1.20856 4.35996 1.19575C4.37378 1.18294 4.39004 1.17347 4.40762 1.168C4.42521 1.16253 4.4437 1.16119 4.46182 1.16407H4.44314ZM5.61566 17.3616C5.45148 17.3616 5.29099 17.3098 5.15448 17.2127C5.01797 17.1156 4.91157 16.9777 4.84875 16.8162C4.78592 16.6548 4.76948 16.4771 4.80151 16.3057C4.83354 16.1343 4.9126 15.9769 5.02869 15.8533C5.14478 15.7298 5.29269 15.6456 5.45372 15.6115C5.61474 15.5774 5.78165 15.5949 5.93333 15.6618C6.08501 15.7287 6.21466 15.8419 6.30587 15.9872C6.39708 16.1325 6.44577 16.3033 6.44577 16.4781C6.44577 16.7124 6.35831 16.9372 6.20263 17.1029C6.04696 17.2685 5.83582 17.3616 5.61566 17.3616ZM9.79523 15.2124H1.44646V2.03657H9.80354L9.79523 15.2124Z" fill="white"/>
</svg>
