<svg width="20" height="20" viewBox="0 0 20 20" fill="none" xmlns="http://www.w3.org/2000/svg">
<path fill-rule="evenodd" clip-rule="evenodd" d="M5.12041 1.74595C5.89209 1.68436 6.62468 1.38092 7.21389 0.878805C8.58885 -0.292935 10.6111 -0.292935 11.9861 0.878805C12.5753 1.38092 13.3079 1.68436 14.0796 1.74595C15.8803 1.88965 17.3104 3.31963 17.454 5.12041C17.5157 5.89209 17.819 6.62468 18.3212 7.21389C19.4929 8.58885 19.4929 10.6111 18.3212 11.9861C17.819 12.5753 17.5157 13.3079 17.454 14.0796C17.3104 15.8803 15.8803 17.3104 14.0796 17.454C13.3079 17.5157 12.5753 17.819 11.9861 18.3212C10.6111 19.4929 8.58885 19.4929 7.21389 18.3212C6.62468 17.819 5.89209 17.5157 5.12041 17.454C3.31963 17.3104 1.88965 15.8803 1.74595 14.0796C1.68436 13.3079 1.38092 12.5753 0.878805 11.9861C-0.292935 10.6111 -0.292935 8.58885 0.878805 7.21389C1.38092 6.62468 1.68436 5.89209 1.74595 5.12041C1.88965 3.31963 3.31963 1.88965 5.12041 1.74595ZM14.0485 8.04853C14.5171 7.57989 14.5171 6.8201 14.0485 6.35146C13.5799 5.88284 12.8201 5.88284 12.3515 6.35146L8.4 10.303L6.84853 8.75146C6.37989 8.28284 5.6201 8.28284 5.15146 8.75146C4.68284 9.2201 4.68284 9.97992 5.15146 10.4485L7.55146 12.8485C8.0201 13.3171 8.77989 13.3171 9.24853 12.8485L14.0485 8.04853Z" fill="#FF3E39"/>
</svg>
